<?xml version="1.0" standalone="no"?>
<!DOCTYPE svg PUBLIC "-//W3C//DTD SVG 20010904//EN"
 "http://www.w3.org/TR/2001/REC-SVG-20010904/DTD/svg10.dtd">
<svg version="1.0" xmlns="http://www.w3.org/2000/svg"
 width="48.000000pt" height="48.000000pt" viewBox="0 0 48.000000 48.000000"
 preserveAspectRatio="xMidYMid meet">

<g transform="translate(0.000000,48.000000) scale(0.100000,-0.100000)"
fill="#000000" stroke="none">
<path d="M312 397 c-17 -39 -32 -81 -32 -93 0 -28 40 -64 71 -64 30 0 69 38
69 66 0 20 -61 164 -70 164 -3 0 -20 -33 -38 -73z"/>
<path d="M92 327 c-17 -39 -32 -81 -32 -93 0 -28 40 -64 71 -64 30 0 69 38 69
66 0 20 -61 164 -70 164 -3 0 -20 -33 -38 -73z"/>
<path d="M222 157 c-17 -39 -32 -81 -32 -93 0 -28 40 -64 71 -64 30 0 69 38
69 66 0 20 -61 164 -70 164 -3 0 -20 -33 -38 -73z"/>
</g>
</svg>
