<?xml version="1.0" standalone="no"?>
<!DOCTYPE svg PUBLIC "-//W3C//DTD SVG 20010904//EN"
 "http://www.w3.org/TR/2001/REC-SVG-20010904/DTD/svg10.dtd">
<svg version="1.0" xmlns="http://www.w3.org/2000/svg"
 width="48.000000pt" height="48.000000pt" viewBox="0 0 48.000000 48.000000"
 preserveAspectRatio="xMidYMid meet">

<g transform="translate(0.000000,48.000000) scale(0.100000,-0.100000)"
fill="#000000" stroke="none">
<path d="M230 466 c0 -8 -15 -17 -33 -20 -60 -11 -122 -59 -151 -117 -32 -65
-35 -94 -7 -79 29 15 77 12 91 -5 12 -14 16 -13 40 10 14 14 34 25 43 25 15 0
17 -14 17 -114 0 -121 -9 -146 -50 -146 -22 0 -50 26 -50 46 0 8 -4 14 -10 14
-18 0 -10 -36 13 -58 30 -28 68 -28 95 1 20 21 22 34 22 140 0 103 2 117 17
117 9 0 29 -11 43 -25 24 -23 28 -24 40 -10 14 17 62 20 91 5 28 -15 25 14 -7
79 -29 58 -91 106 -151 117 -18 3 -33 12 -33 20 0 8 -4 14 -10 14 -5 0 -10 -6
-10 -14z"/>
</g>
</svg>
