<?xml version="1.0" standalone="no"?>
<!DOCTYPE svg PUBLIC "-//W3C//DTD SVG 20010904//EN"
 "http://www.w3.org/TR/2001/REC-SVG-20010904/DTD/svg10.dtd">
<svg version="1.0" xmlns="http://www.w3.org/2000/svg"
 width="48.000000pt" height="48.000000pt" viewBox="0 0 48.000000 48.000000"
 preserveAspectRatio="xMidYMid meet">

<g transform="translate(0.000000,48.000000) scale(0.100000,-0.100000)"
fill="#000000" stroke="none">
<path d="M155 344 c-55 -20 -121 -88 -140 -143 -20 -58 -19 -71 4 -71 13 0 21
10 25 34 16 82 108 156 196 156 88 0 180 -74 196 -156 4 -24 12 -34 25 -34 23
0 24 13 3 73 -11 32 -31 61 -64 90 -73 65 -157 83 -245 51z"/>
<path d="M164 276 c-38 -17 -82 -72 -90 -114 -6 -28 -4 -32 15 -32 15 0 21 6
21 21 0 12 17 39 39 60 35 35 44 39 91 39 47 0 56 -4 91 -39 22 -21 39 -48 39
-60 0 -15 6 -21 21 -21 50 0 -9 112 -74 144 -42 19 -110 20 -153 2z"/>
<path d="M215 223 c-28 -7 -75 -53 -75 -75 0 -26 18 -22 50 12 15 17 38 30 50
30 12 0 35 -13 50 -30 32 -34 50 -38 50 -12 0 40 -76 86 -125 75z"/>
</g>
</svg>
