<?xml version="1.0" encoding="utf-8"?>
<!-- Generator: Adobe Illustrator 24.0.1, SVG Export Plug-In . SVG Version: 6.00 Build 0)  -->
<svg version="1.1" id="Layer_2" xmlns="http://www.w3.org/2000/svg" xmlns:xlink="http://www.w3.org/1999/xlink" x="0px" y="0px"
	 viewBox="0 0 64 64" style="enable-background:new 0 0 64 64;" xml:space="preserve">
<style type="text/css">
	.st0{fill:#202020;}
	.st1{fill:none;stroke:#202020;stroke-linecap:round;stroke-miterlimit:10;}
</style>
<g>
	<g>
		<path class="st0" d="M32,54.02c-14.3,0-26-1.74-26-16.04s11.7-26,26-26s26,11.7,26,26S46.3,54.02,32,54.02z M32,15.98
			c-12.1,0-22,9.9-22,22s9.9,12.04,22,12.04s22,0.06,22-12.04S44.1,15.98,32,15.98z"/>
		<path class="st0" d="M32,45.98c-3.3,0-6-2.7-6-6c0-1.1,0.3-2.1,0.8-3l5.2-9l5.2,9c0.5,0.9,0.8,1.9,0.8,3
			C38,43.28,35.3,45.98,32,45.98z M32,35.98l-1.7,3c-0.2,0.3-0.3,0.6-0.3,1c0,1.1,0.9,2,2,2c1.1,0,2-0.9,2-2c0-0.4-0.1-0.7-0.3-1
			l0,0L32,35.98z"/>
	</g>
	<line class="st1" x1="32" y1="12.71" x2="32" y2="22.98"/>
	<line class="st1" x1="13.88" y1="20.77" x2="19.26" y2="26.16"/>
	<line class="st1" x1="7.18" y1="38.98" x2="17.45" y2="38.98"/>
	<line class="st1" x1="49.81" y1="20.77" x2="44.42" y2="26.16"/>
	<line class="st1" x1="56.5" y1="38.98" x2="46.23" y2="38.98"/>
</g>
</svg>
