<?xml version="1.0" standalone="no"?>
<!DOCTYPE svg PUBLIC "-//W3C//DTD SVG 20010904//EN"
 "http://www.w3.org/TR/2001/REC-SVG-20010904/DTD/svg10.dtd">
<svg version="1.0" xmlns="http://www.w3.org/2000/svg"
 width="48.000000pt" height="48.000000pt" viewBox="0 0 48.000000 48.000000"
 preserveAspectRatio="xMidYMid meet">

<g transform="translate(0.000000,48.000000) scale(0.100000,-0.100000)"
fill="#000000" stroke="none">
<path d="M226 408 c-9 -35 -8 -38 15 -38 15 0 19 4 15 16 -3 9 -6 22 -6 30 0
22 -17 16 -24 -8z"/>
<path d="M86 351 c18 -30 34 -36 41 -15 2 5 -11 18 -28 28 l-32 19 19 -32z"/>
<path d="M377 362 c-26 -16 -31 -32 -11 -39 5 -2 18 10 27 27 21 35 21 35 -16
12z"/>
<path d="M163 330 c-62 -38 -83 -132 -43 -197 l20 -33 100 0 100 0 20 33 c24
39 26 106 5 148 -22 42 -71 69 -125 69 -27 0 -58 -8 -77 -20z m87 -65 c0 -33
4 -45 15 -45 13 0 12 -5 -2 -35 -9 -19 -20 -35 -25 -35 -14 0 -42 64 -29 68 6
2 11 24 11 48 0 32 4 44 15 44 11 0 15 -12 15 -45z"/>
<path d="M38 223 c-25 -6 -22 -20 5 -27 34 -9 37 -8 37 14 0 20 -8 22 -42 13z"/>
<path d="M400 210 c0 -19 4 -21 27 -15 46 11 46 19 0 30 -23 6 -27 4 -27 -15z"/>
<path d="M0 60 c0 -19 7 -20 240 -20 233 0 240 1 240 20 0 19 -7 20 -240 20
-233 0 -240 -1 -240 -20z"/>
</g>
</svg>
