<?xml version="1.0" standalone="no"?>
<!DOCTYPE svg PUBLIC "-//W3C//DTD SVG 20010904//EN"
 "http://www.w3.org/TR/2001/REC-SVG-20010904/DTD/svg10.dtd">
<svg version="1.0" xmlns="http://www.w3.org/2000/svg"
 width="48.000000pt" height="48.000000pt" viewBox="0 0 48.000000 48.000000"
 preserveAspectRatio="xMidYMid meet">

<g transform="translate(0.000000,48.000000) scale(0.100000,-0.100000)"
fill="#000000" stroke="none">
<path d="M0 264 c0 -103 1 -106 29 -135 23 -23 38 -29 71 -29 85 0 110 40 110
180 0 83 -1 90 -20 90 -19 0 -20 -7 -20 -100 0 -112 -14 -140 -68 -140 -51 0
-64 28 -70 140 -3 76 -8 100 -18 100 -11 0 -14 -23 -14 -106z"/>
<path d="M243 358 c3 -7 26 -68 52 -135 60 -154 69 -157 115 -35 18 48 41 108
51 135 18 45 18 47 0 47 -14 0 -27 -24 -56 -102 -20 -57 -40 -106 -44 -110 -3
-4 -24 42 -45 102 -31 90 -42 110 -58 110 -12 0 -18 -5 -15 -12z"/>
</g>
</svg>
