<?xml version="1.0" standalone="no"?>
<!DOCTYPE svg PUBLIC "-//W3C//DTD SVG 20010904//EN"
 "http://www.w3.org/TR/2001/REC-SVG-20010904/DTD/svg10.dtd">
<svg version="1.0" xmlns="http://www.w3.org/2000/svg"
 width="48.000000pt" height="48.000000pt" viewBox="0 0 48.000000 48.000000"
 preserveAspectRatio="xMidYMid meet">

<g transform="translate(0.000000,48.000000) scale(0.100000,-0.100000)"
fill="#000000" stroke="none">
<path d="M129 399 c-16 -16 -20 -29 -15 -50 l6 -29 -60 0 c-33 0 -60 -4 -60
-10 0 -6 38 -10 95 -10 82 0 98 3 115 20 25 25 25 55 0 80 -26 26 -55 25 -81
-1z"/>
<path d="M379 329 c-16 -16 -20 -29 -15 -50 l5 -29 -184 0 c-117 0 -185 -4
-185 -10 0 -6 80 -10 220 -10 207 0 221 1 240 20 11 11 20 29 20 40 0 11 -9
29 -20 40 -26 26 -55 25 -81 -1z"/>
<path d="M0 160 c0 -6 46 -10 118 -10 l119 0 -5 -30 c-9 -60 56 -92 98 -50 11
11 20 29 20 40 0 11 -9 29 -20 40 -18 18 -33 20 -175 20 -97 0 -155 -4 -155
-10z"/>
</g>
</svg>
